<?xml version="1.0" encoding="UTF-8"?><svg id="Capa_1" xmlns="http://www.w3.org/2000/svg" viewBox="0 0 51.95 49.83"><defs><style>.cls-1{fill:#e0e0e0;}</style></defs><path class="cls-1" d="M39.96,12.72H11.99c-2.28,0-4.14,1.86-4.14,4.14v16.11c0,2.28,1.86,4.14,4.14,4.14h27.97c2.28,0,4.14-1.86,4.14-4.14v-16.11c0-2.28-1.86-4.14-4.14-4.14ZM31.7,24.92l10.28-9.42c.26.39.42.86.42,1.36v16.11c0,.51-.16.98-.42,1.37l-10.28-9.42ZM39.96,14.43c.2,0,.4.03.58.08l-13.47,12.34c-.6.55-1.61.55-2.2,0l-13.47-12.34c.19-.05.38-.08.58-.08h27.97ZM9.98,34.34c-.27-.39-.42-.86-.42-1.37v-16.11c0-.51.16-.97.42-1.36l10.28,9.42-10.28,9.42ZM11.99,35.41c-.2,0-.39-.03-.58-.08l10.1-9.26,2.21,2.03c.62.57,1.44.85,2.25.85s1.63-.28,2.25-.85l2.21-2.03,10.1,9.26c-.19.05-.38.08-.58.08H11.99Z"/></svg>