<?xml version="1.0" encoding="UTF-8"?><svg id="Capa_1" xmlns="http://www.w3.org/2000/svg" viewBox="0 0 51.95 49.83"><defs><style>.cls-1{fill:#e0e0e0;}</style></defs><path class="cls-1" d="M41.81,33.66l-5.83-5.45c-1.04-.96-2.74-.99-3.79-.07l-1.08.94c-.49.42-1.12.85-1.3.9-.53.07-.99-.21-1.71-.68l-.19-.13c-4.85-3.17-7.14-7.59-7.17-7.64-.24-.47-.16-1.32.16-1.75l1.34-1.78c.86-1.14.72-2.81-.31-3.79l-4.72-4.48c-.64-.69-1.86-1.85-2.91-1.88-1.62-.09-2.47,1.19-3.06,2.1l-.17.26c-1.78,2.66-2.32,5.78-1.6,9.28,1.33,6.51,7.1,13.77,15.05,18.94,3.65,2.37,6.97,3.56,9.92,3.56.91,0,1.79-.11,2.63-.34,3.81-1.04,5.37-4.07,5.43-4.2.6-1.21.3-2.87-.68-3.79ZM40.71,36.55c-.05.1-1.26,2.4-4.21,3.18-2.98.79-6.65-.21-10.91-2.98-7.52-4.89-12.96-11.66-14.19-17.67-.61-2.96-.17-5.57,1.3-7.77l.18-.28c.54-.83.83-1.2,1.26-1.2h.02c.26.06,1.01.66,1.6,1.3l4.77,4.52c.3.28.34.82.09,1.14l-1.34,1.78h0c-.78,1.05-.92,2.7-.34,3.85.1.2,2.54,4.93,7.85,8.4l.19.12c.8.52,1.79,1.18,3.09.99.81-.11,1.9-1,2.33-1.37l1.09-.94c.3-.26.83-.25,1.13.02l5.83,5.45c.34.32.47,1.02.26,1.43Z"/></svg>