<?xml version="1.0" encoding="UTF-8"?><svg id="Capa_1" xmlns="http://www.w3.org/2000/svg" viewBox="0 0 51.95 49.83"><defs><style>.cls-1{fill:#e0e0e0;}</style></defs><path class="cls-1" d="M25.98,43.79c-.38,0-.74-.15-1.01-.41-.53-.51-13.36-12.91-13.36-22.95,0-7.92,6.45-14.37,14.37-14.37s14.37,6.45,14.37,14.37c0,9.81-12.01,21.65-13.37,22.96-.27.26-.62.4-.99.4ZM25.76,42.12s0,0,0,0c0,0,0,0,0,0ZM26.19,42.12s0,0,0,0c0,0,0,0,0,0ZM25.98,7.8c-6.96,0-12.62,5.66-12.62,12.62,0,8.74,10.87,19.77,12.62,21.49,1.76-1.74,12.62-12.81,12.62-21.49,0-6.96-5.66-12.62-12.62-12.62ZM25.98,27.48c-3.89,0-7.06-3.17-7.06-7.06s3.17-7.06,7.06-7.06,7.06,3.17,7.06,7.06-3.17,7.06-7.06,7.06ZM25.98,15.11c-2.93,0-5.31,2.38-5.31,5.31s2.38,5.31,5.31,5.31,5.31-2.38,5.31-5.31-2.38-5.31-5.31-5.31Z"/></svg>