<?xml version="1.0" encoding="UTF-8"?><svg id="Capa_1" xmlns="http://www.w3.org/2000/svg" viewBox="0 0 595.28 157.92"><path d="M445.02,110.23h-12.72v-31.5c0-5.4-10.97-1.85-13.25.53v30.97h-12.19v-28.85c0-.33-.88-3.81-1.11-4.18-2.18-3.54-12.67,1.03-12.67,2.07v30.97h-12.19v-44.99h12.19c.13,0-.32,2.12.27,2.13,6.68-2.35,13.45-5.92,20.24-1.7,1.03.64,2.72,2.74,3.51,2.66,1-.09,6.03-3,8.08-3.59,8.03-2.3,16.47-.96,18.95,8.01.18.64.9,3.54.9,3.86v33.61Z"/><path d="M118.44,65.24v28.85c0,.42.98,3.5,1.33,3.97,2.15,2.94,10.84,1.29,14.05.53v-33.35h12.72v42.88c-5.35,1.09-10.71,2.59-16.17,3.17-7.74.82-18.43.87-22.26-7.41-.31-.67-1.86-5.2-1.86-5.56v-33.08h12.19Z"/><path d="M169.87,53.07v12.7h13.52c.06,0,.8.74.8.79v10.06c0,.06-.74.79-.8.79h-13.52v17.2c0,.58,1.12,2.66,1.73,3.08,2.8,1.92,6.76,1.11,9.93,1.95v11.12c-6.45-.48-19.03.21-22.56-6.33-.72-1.33-1.83-5.3-1.83-6.64v-43.94c0-.06.74-.79.8-.79h11.93Z"/><path d="M327.86,64.18v12.7c-5.65.56-11.23,2.33-15.91,5.56v27.79h-12.72v-44.99h12.72c.24,0-.38,4.18.26,4.76,4.37-3.62,10.08-5.34,15.64-5.82Z"/><path d="M557.42,64.18v12.7c-5.6.44-11.24,2.4-15.91,5.56v27.79h-12.72v-44.99h12.72c.24,0-.39,4.18.26,4.76,4.27-3.66,10.16-5.31,15.64-5.82Z"/><rect x="456.16" y="65.24" width="12.19" height="44.99"/><rect x="456.16" y="46.18" width="12.19" height="13.23"/><path d="M77.89,46.71c-1.08-1.3-13.88-.09-16.46-.56l-23.57,64.09h12.99l4.45-11.32c9-.71,18.41-.21,27.55-.26,1.68,3.74,2.35,8.18,4.58,11.57h13.52l-23.06-63.52ZM59.59,86.41l9.28-27,9.81,27h-19.09Z"/><path d="M291.16,57.68c-1.95-5.42-8.51-11.5-14.46-11.5h-33.67v64.05h12.46c.06,0,.8-.74.8-.79v-21.44h16.17c16.57,0,23.86-15.95,18.7-30.32ZM275.53,74.66c-.54.22-3.84,1.17-4.13,1.17h-15.11v-18h14.58c.22,0,3.56.65,4,.78,6.3,1.88,6.46,13.68.67,16.06Z"/><path d="M502.01,63.66c-14.19-1.03-22.92,4.85-24.11,19.32-1.95,23.87,8.11,30.87,31,28.3,2.76-.31,6.44-.71,8.75-1.85v-10.32c-8.21.91-26.69,6.1-27.57-6.35h29.16c1.97-15.08.55-27.81-17.24-29.11ZM507.58,83.77h-17.5c-1.16-13.44,20.14-13.55,17.5,0Z"/><path d="M353.56,63.66c-15.06-.99-22.96,5.34-24.11,20.38-1.8,23.64,10.13,29.95,32,27.19,2.41-.3,5.76-.75,7.75-1.79v-10.32c-8.46,1-25.98,6.07-27.57-6.35h29.16c2.15-15.1.59-27.93-17.24-29.11ZM359.67,83.77h-18.03c-.52-13.38,19.6-13.77,18.03,0Z"/><path d="M233.51,86.65c-.26-16.23-10.04-24.48-26.11-22.85-11.39,1.16-17.26,8.02-18.38,19.23-1.49,14.83,3.29,27.79,19.88,28.71,16.82.94,24.87-8.95,24.61-25.1ZM220.09,93.42c-2.4,8.56-14.9,9.35-17.62.93-1.84-5.71-1.63-17.64,5.95-18.92,11.51-1.95,14.21,8.93,11.66,18Z"/></svg>