<?xml version="1.0" encoding="UTF-8"?><svg id="Capa_1" xmlns="http://www.w3.org/2000/svg" viewBox="0 0 595.28 157.92"><path d="M96.36,117.57h-48.26V39.14h14.88v65.61h33.38v12.81Z"/><path d="M126.36,118.78c-8.58,0-15.13-3.08-19.65-9.25-4.52-6.17-6.78-13.23-6.78-21.2,0-8.58,2.5-15.72,7.5-21.43,5-5.71,11.6-8.56,19.79-8.56,7.78,0,14.16,2.78,19.16,8.33,5,5.55,7.5,12.77,7.5,21.66s-2.6,16.52-7.79,22.09c-5.19,5.57-11.77,8.36-19.74,8.36ZM126.82,107.97c8.81,0,13.21-6.57,13.21-19.71,0-5.94-1.05-10.62-3.16-14.05-2.11-3.43-5.34-5.14-9.71-5.14s-7.87,1.77-10.05,5.31c-2.18,3.54-3.27,8.24-3.27,14.11,0,6.32,1.16,11.15,3.48,14.48,2.32,3.33,5.49,5,9.51,5Z"/><path d="M209.21,117.57h-13.1v-36.25c0-3.83-.88-6.71-2.64-8.65-1.76-1.93-3.89-2.9-6.38-2.9-3.41,0-6.4,1.49-8.96,4.48-2.57,2.99-3.85,7.49-3.85,13.5v29.82h-13.1v-58.03h11.95v13.45c4.17-9.77,10.03-14.65,17.58-14.65,5.09,0,9.45,1.61,13.07,4.83,3.62,3.22,5.43,8.87,5.43,16.95v37.46Z"/><path d="M253.69,96.25l11.26,1.15c-1.46,7.28-4.27,12.66-8.45,16.14-4.18,3.49-9.21,5.23-15.11,5.23-8.01,0-14.16-2.92-18.47-8.76-4.31-5.84-6.46-12.99-6.46-21.46s2.36-15.95,7.07-21.66c4.71-5.71,10.99-8.56,18.85-8.56,12.64,0,20.17,6.66,22.58,19.99l-11.26,1.55c-1-7.2-4.54-10.8-10.63-10.8-4.44,0-7.67,1.94-9.68,5.83-2.01,3.89-3.02,8.59-3.02,14.11,0,5.86,1.04,10.38,3.13,13.56,2.09,3.18,5.01,4.77,8.76,4.77,5.75,0,9.56-3.7,11.43-11.09Z"/><path d="M295.34,118.78c-8.58,0-15.13-3.08-19.65-9.25-4.52-6.17-6.78-13.23-6.78-21.2,0-8.58,2.5-15.72,7.5-21.43s11.6-8.56,19.79-8.56c7.78,0,14.16,2.78,19.16,8.33,5,5.55,7.5,12.77,7.5,21.66s-2.6,16.52-7.79,22.09c-5.19,5.57-11.77,8.36-19.74,8.36ZM295.8,107.97c8.81,0,13.21-6.57,13.21-19.71,0-5.94-1.05-10.62-3.16-14.05-2.11-3.43-5.34-5.14-9.71-5.14s-7.87,1.77-10.05,5.31c-2.18,3.54-3.28,8.24-3.28,14.11,0,6.32,1.16,11.15,3.48,14.48,2.32,3.33,5.49,5,9.51,5Z"/><path d="M357.91,82.35v10.74h-28.84v-10.74h28.84Z"/><path d="M426.85,117.57h-14.13v-34.07h-29.93v34.07h-14.13V39.14h14.13v32.23h29.93v-32.23h14.13v78.43Z"/><path d="M486.38,117.57h-12.18v-12.53c-3.29,9.16-9.4,13.73-18.33,13.73-5.29,0-9.48-1.64-12.58-4.91-3.1-3.28-4.65-7.84-4.65-13.7v-40.62h13.39v37.81c0,4.18.92,6.91,2.76,8.22,1.84,1.3,3.64,1.95,5.4,1.95,2.83,0,5.73-1.27,8.68-3.82,2.95-2.55,4.42-7.98,4.42-16.29v-27.87h13.1v58.03Z"/><path d="M534.3,99.07l11.84,1.61c-1.53,5.25-4.52,9.58-8.96,12.98-4.44,3.41-10.02,5.11-16.72,5.11-8.04,0-14.52-2.7-19.42-8.1-4.9-5.4-7.35-12.72-7.35-21.95s2.47-16.03,7.41-21.78c4.94-5.75,11.64-8.62,20.11-8.62s14.67,2.83,19.19,8.5,6.78,12.95,6.78,21.83l-.06,1.49h-39.82c0,3.95.37,7.11,1.12,9.48.75,2.38,2.23,4.44,4.45,6.21,2.22,1.76,5,2.64,8.33,2.64,6.47,0,10.84-3.14,13.1-9.42ZM533.5,81.72c-.04-4.17-1.29-7.58-3.76-10.23-2.47-2.64-5.53-3.96-9.16-3.96s-6.61,1.23-9.02,3.71c-2.41,2.47-3.83,5.97-4.25,10.49h26.2Z"/></svg>