<?xml version="1.0" encoding="UTF-8"?><svg id="Capa_1" xmlns="http://www.w3.org/2000/svg" viewBox="0 0 1182.2 273.68"><path d="M187.95,108.05h-13.6c-2.43-14.5-9.27-21.76-20.51-21.76-7.86,0-14.09,3.83-18.7,11.5-4.99,8.35-7.49,19.54-7.49,33.55s2.6,25.4,7.79,33.81c4.51,7.32,10.75,10.98,18.71,10.98,12.71,0,19.82-9.38,21.33-28.13h13.97c-.53,10.51-2.45,19.09-5.75,25.72-6.02,12.11-15.69,18.17-29.03,18.17-11.98,0-21.83-4.69-29.54-14.06-9.07-10.98-13.6-26.42-13.6-46.31,0-21.56,5.06-37.82,15.2-48.8,7.51-8.12,16.61-12.18,27.27-12.18,6.69,0,12.7,1.72,18.03,5.14,9.4,6,14.71,16.79,15.93,32.37"/><path d="M212.82,70.73c2.47,0,4.53.88,6.18,2.65,1.84,2,2.76,4.77,2.76,8.31,0,3.2-.82,5.77-2.47,7.71-1.75,2.05-4,3.08-6.76,3.08s-5-1-6.69-3c-1.7-1.94-2.55-4.48-2.55-7.62,0-3.54.95-6.31,2.84-8.31,1.79-1.89,4.02-2.83,6.69-2.83M205.08,106.36h14.91v83.37h-14.91v-83.37Z"/><path d="M303.15,106.36v12.57h-14.46c.92,1.09,1.75,2.57,2.47,4.46,1.55,3.95,2.33,8.04,2.33,12.27,0,6.46-1.53,11.75-4.58,15.87-2.57,3.43-6.66,6-12.28,7.72-2.18.63-6.88,1.57-14.09,2.83-2.91.51-5.09,1.68-6.54,3.5-.58.68-.87,1.51-.87,2.47,0,1.42.73,2.5,2.18,3.24,1.11.57,5.36,1.28,12.73,2.13,10.96,1.26,18.32,3.06,22.11,5.41,2.76,1.72,4.92,4.09,6.47,7.12,1.89,3.66,2.84,7.78,2.84,12.37,0,9.04-3.35,15.97-10.03,20.78-5.77,4.12-13.62,6.18-23.56,6.18-11.1,0-19.71-2.49-25.81-7.46-5.28-4.23-7.92-9.83-7.92-16.81,0-9.32,4.84-15.98,14.54-19.99-5.19-2.46-7.78-5.78-7.78-9.96,0-3.55,1.62-6.55,4.86-9.01,1.94-1.43,4.5-2.89,7.7-4.38-8.69-4.69-13.04-12.63-13.04-23.83,0-8.97,2.64-16.11,7.92-21.43,4.99-5.03,11.6-7.54,19.85-7.54,3.83,0,7.97.73,12.43,2.19l22.54-.68ZM265.9,187.29c-5.29,0-9.64.89-13.04,2.66-3.98,2.12-5.97,5.33-5.97,9.63s2.09,7.34,6.26,9.46c4.08,2.06,9.06,3.1,14.93,3.1,6.51,0,11.56-1.35,15.16-4.04,2.77-2.12,4.16-4.87,4.16-8.26,0-8.37-7.17-12.56-21.5-12.56M267.14,118.18c-4.07,0-7.4,1.51-9.96,4.54-2.42,2.86-3.63,6.52-3.63,10.98,0,4.17,1.14,7.58,3.42,10.21,2.52,2.92,5.89,4.38,10.1,4.38s7.78-1.46,10.26-4.38c2.27-2.63,3.42-6.03,3.42-10.21s-1.14-7.98-3.42-10.89c-2.47-3.09-5.87-4.63-10.18-4.63"/><rect x="315.59" y="71.95" width="14.91" height="117.78"/><path d="M359.33,70.73c2.47,0,4.53.88,6.18,2.65,1.84,2,2.76,4.77,2.76,8.31,0,3.2-.83,5.77-2.47,7.71-1.75,2.05-4,3.08-6.76,3.08s-4.99-1-6.69-3c-1.69-1.94-2.54-4.48-2.54-7.62,0-3.54.94-6.31,2.84-8.31,1.79-1.89,4.02-2.83,6.69-2.83M351.58,106.36h14.91v83.37h-14.91v-83.37Z"/><path d="M387.19,106.36h14.63v49.12c0,7.37.83,12.4,2.47,15.09,2.28,3.83,5.89,5.74,10.83,5.74,5.87,0,10.18-2.83,12.94-8.49,1.7-3.49,2.54-8.72,2.54-15.69v-45.78h14.63v57.81c0,6.75.02,11.21.07,13.38.14,4.35.7,8.41,1.67,12.18h-14.07c-.83-2.64-1.31-6.07-1.46-10.32-4.41,8.13-10.88,12.19-19.41,12.19-5.86,0-10.88-1.69-15.05-5.06-4.79-3.89-7.77-9.32-8.94-16.29-.58-3.72-.87-8.43-.87-14.15v-49.74Z"/><path d="M485.08,106.36h15.57l-.22,13.6h-15.54l-.51,36.88c-.05,2.29-.07,4.6-.07,6.95,0,5.03.48,8.26,1.45,9.69,1.31,1.83,3.29,2.75,5.95,2.75,3.24,0,6.75-.91,10.52-2.75l-.22,14.59c-4.91,2.23-9.69,3.35-14.35,3.35-7.63,0-12.97-2.98-16.02-8.92-1.65-3.14-2.48-8.06-2.48-14.75,0-2,.07-5.63.22-10.89l.87-36.89h-10.79l.22-13.6h11.03l.51-24.01h14.2l-.36,24.01Z"/><path d="M535.32,106.36h15.57l-.22,13.6h-15.54l-.51,36.88c-.05,2.29-.07,4.6-.07,6.95,0,5.03.48,8.26,1.45,9.69,1.31,1.83,3.29,2.75,5.95,2.75,3.24,0,6.75-.91,10.53-2.75l-.22,14.59c-4.91,2.23-9.69,3.35-14.35,3.35-7.62,0-12.96-2.98-16.02-8.92-1.65-3.14-2.47-8.06-2.47-14.75,0-2,.07-5.63.22-10.89l.87-36.89h-10.78l.22-13.6h11.04l.51-24.01h14.2l-.36,24.01Z"/><path d="M574.46,70.73c2.47,0,4.53.88,6.18,2.65,1.84,2,2.76,4.77,2.76,8.31,0,3.2-.82,5.77-2.47,7.71-1.75,2.05-4,3.08-6.76,3.08s-5-1-6.69-3c-1.7-1.94-2.55-4.48-2.55-7.62,0-3.54.95-6.31,2.84-8.31,1.79-1.89,4.02-2.83,6.69-2.83M566.71,106.36h14.91v83.37h-14.91v-83.37Z"/><path d="M681.84,130.37h33.1v48.48c-10.47,8.69-22.07,13.04-34.81,13.04s-23.38-4.8-31.03-14.41c-8.87-11.15-13.3-26.58-13.3-46.31,0-13.66,2.18-25.39,6.54-35.16,4.07-9.09,9.83-15.84,17.29-20.24,5.81-3.49,12.18-5.23,19.11-5.23s13.24,1.77,18.82,5.32c9.49,6.01,14.82,16.68,15.98,32.01h-13.6c-2.23-14.38-9.22-21.57-20.99-21.57-8.04,0-14.26,3.35-18.67,10.04-5.57,8.35-8.35,20-8.35,34.93s2.85,26.49,8.57,34.84c4.6,6.69,11.14,10.04,19.6,10.04,7.55,0,14.79-2.55,21.72-7.64v-23.87h-19.97v-14.25Z"/><path d="M733.7,106.36h14.63v49.12c0,7.37.82,12.4,2.47,15.09,2.27,3.83,5.89,5.74,10.83,5.74,5.86,0,10.17-2.83,12.94-8.49,1.69-3.49,2.54-8.72,2.54-15.69v-45.78h14.63v57.81c0,6.75.03,11.21.07,13.38.15,4.35.7,8.41,1.67,12.18h-14.07c-.83-2.64-1.31-6.07-1.46-10.32-4.41,8.13-10.88,12.19-19.41,12.19-5.86,0-10.88-1.69-15.04-5.06-4.8-3.89-7.78-9.32-8.94-16.29-.58-3.72-.87-8.43-.87-14.15v-49.74Z"/><path d="M871.1,151.84h-48.41c.24,7.26,1.56,13.03,3.95,17.32,3.26,5.83,8.21,8.75,14.84,8.75,6.97,0,11.99-3.66,15.06-10.97l13.13,1.12c-1.51,5.95-3.93,10.86-7.29,14.75-5.29,6.18-12.39,9.26-21.27,9.26-8.26,0-15.25-2.74-20.98-8.24-8.11-7.84-12.17-19.4-12.17-34.67,0-10.59,1.87-19.68,5.61-27.3,3.25-6.64,7.72-11.47,13.4-14.5,4.13-2.23,8.64-3.35,13.54-3.35,10,0,17.82,4.52,23.45,13.57,4.81,7.73,7.21,17.78,7.21,30.14,0,.92-.02,2.29-.07,4.12M856.16,139c-1.41-14.13-6.73-21.19-15.96-21.19s-14.72,7.06-17.05,21.19h33.01Z"/><path d="M886.39,106.36h14.02c.72,4.25,1.09,8.57,1.09,12.99,0,1.09-.05,2.67-.14,4.73,5.09-13.07,11.51-19.6,19.26-19.6,1.98,0,4.34.57,7.05,1.72v17.44c-3.78-2.46-7.22-3.69-10.33-3.69-5.77,0-10.01,3.77-12.73,11.31-1.7,4.69-2.55,11.48-2.55,20.4v38.06h-14.72v-56.26c-.05-13.21-.37-22.24-.95-27.1"/><path d="M947.21,70.73c2.47,0,4.53.88,6.18,2.65,1.84,2,2.76,4.77,2.76,8.31,0,3.2-.83,5.77-2.47,7.71-1.75,2.05-4,3.08-6.76,3.08s-5-1-6.69-3c-1.7-1.94-2.55-4.48-2.55-7.62,0-3.54.95-6.31,2.84-8.31,1.79-1.89,4.02-2.83,6.69-2.83M939.47,106.36h14.91v83.37h-14.91v-83.37Z"/><path d="M973.57,106.36h14.13c.92,2.92,1.41,6.71,1.46,11.35,5.03-8.82,12.11-13.22,21.25-13.22,5.51,0,10.25,1.63,14.21,4.89,4.74,4,7.5,9.8,8.27,17.41.29,2.8.43,7.77.43,14.92v48.02h-14.63v-45.1c0-8.57-.58-14.35-1.74-17.32-1.98-5.03-5.62-7.55-10.93-7.55-6.04,0-10.5,3.03-13.4,9.09-1.69,3.49-2.54,8.94-2.54,16.38v44.49h-14.63v-54.21c0-10.52-.15-17.41-.44-20.67-.19-2.06-.68-4.89-1.45-8.49"/><path d="M1061.73,70.73c2.47,0,4.53.88,6.18,2.65,1.84,2,2.76,4.77,2.76,8.31,0,3.2-.83,5.77-2.47,7.71-1.75,2.05-4,3.08-6.77,3.08s-4.99-1-6.69-3c-1.7-1.94-2.55-4.48-2.55-7.62,0-3.54.94-6.31,2.84-8.31,1.79-1.89,4.02-2.83,6.69-2.83M1053.98,106.36h14.91v83.37h-14.91v-83.37Z"/></svg>