<?xml version="1.0" encoding="UTF-8"?><svg id="Capa_1" xmlns="http://www.w3.org/2000/svg" viewBox="0 0 283.22 119.64"><defs><style>.cls-1{fill:#353a3e;}.cls-2{fill:#1a1a1a;}</style></defs><path class="cls-2" d="M76.69,76.65c15.71-.16,31.43-.26,47.14-.31.2,0,.31-.13.34-.19.03-.06.11-.21.01-.39-7.78-14.89-15.56-29.78-23.34-44.71-1.96-3.69-4.84-5.49-8.81-5.49-4.02,0-7.62,1.82-11.03,5.59-13.36,14.95-26.72,30.01-40.08,45.29-.16.18-.09.38-.07.43.03.05.13.24.37.23,5.58-.09,11.16-.17,16.75-.24.11,0,.22-.05.3-.14,9.72-11.08,19.44-22.06,29.15-32.97.22-.25.54-.39.87-.39.45,0,.85.24,1.05.63,2.11,4.14,4.22,8.28,6.33,12.41.89,1.76,2.18,4.25,3.23,6.14.2.36.2.79-.01,1.14-.21.35-.58.56-1,.57-2.34-.07-6.19-.05-8.74-.03-.63,0-1.27,0-1.9.01-.11,0-.22.05-.3.13-3.53,3.87-7.05,7.74-10.58,11.63-.16.18-.1.37-.07.43.02.06.12.24.37.23Z"/><path class="cls-1" d="M188.28,44.35c0-8.24-6.99-13.36-18.24-13.37-18.19,0-36.38,0-54.56,0-.24,0-.47.1-.64.27-1.56,1.61-3.12,3.22-4.68,4.83-.25.26-.32.62-.17.94.14.33.45.53.81.53,18.5-.02,36.99-.03,55.49,0,9.63,0,14.11,2.43,14.11,7.6,0,8.89-10.9,10.18-17.4,10.17-9.72-.02-19.43-.02-29.15-.01-.43,0-.79.3-.87.72-1.15,6.46-2.3,12.92-3.45,19.38-.05.25.02.51.19.71.17.2.41.31.67.31,1.99,0,3.98,0,5.97,0,.43,0,.79-.3.87-.72.8-4.52,1.6-9.03,2.4-13.55.04-.24.26-.42.51-.42,8.14,0,16.29,0,24.43.03,14.63.04,23.71-6.6,23.71-17.39Z"/><path class="cls-1" d="M244.69,32.66c.31-.23.43-.62.31-.98-.12-.36-.45-.61-.84-.6-2.55,0-5.1,0-7.65-.01-.19,0-.38.06-.53.18-7.62,5.75-15.23,11.47-22.85,17.16-.21.16-.5.13-.68-.06-5.49-5.71-10.97-11.4-16.46-17.07-.17-.17-.4-.27-.63-.27-2.68,0-5.36,0-8.04,0-.36,0-.67.2-.81.53-.14.33-.07.69.18.94,6.64,6.75,13.27,13.51,19.91,20.31.1.11.15.25.14.4-.01.15-.09.28-.21.37-9.72,7.15-19.43,14.26-29.15,21.38-.31.23-.43.61-.31.97.12.36.45.6.83.6,2.44.01,4.88.03,7.31.04.19,0,.37-.06.53-.17,8.32-6.13,16.65-12.25,24.97-18.41.2-.15.5-.13.68.06,6.04,6.2,12.07,12.43,18.11,18.69.16.17.39.27.63.27,2.75.04,5.49.08,8.24.12.36,0,.67-.2.81-.53.14-.33.07-.7-.18-.96-7.18-7.44-14.36-14.82-21.54-22.17-.1-.11-.16-.25-.15-.4.01-.15.09-.28.2-.37,9.05-6.64,18.1-13.3,27.15-20.02Z"/><path class="cls-1" d="M38.17,82.58c59.16-1.24,119.63-1.2,178.77-.49l25.54.49c.25.23-204.55.23-204.31,0h0Z"/><path class="cls-1" d="M42.29,88.47v1.48h1.87v.77h-1.87v1.51h2.38v.8h-3.38v-5.35h3.38v.79h-2.38Z"/><path class="cls-1" d="M52.74,94.08h-.82c-.12,0-.22-.02-.32-.05-.09-.03-.18-.09-.26-.18l-.79-.87c-.12.03-.25.06-.39.08-.13.02-.27.03-.41.03-.41,0-.77-.07-1.11-.21-.33-.14-.62-.33-.86-.57-.24-.25-.42-.53-.55-.87-.13-.33-.2-.7-.2-1.09s.07-.76.2-1.09.32-.62.55-.87.52-.43.86-.57c.33-.14.7-.21,1.11-.21.27,0,.53.03.77.09.24.06.46.15.66.27.2.11.38.25.54.42s.29.35.41.55c.11.2.2.42.25.66.06.24.09.49.09.75,0,.24-.03.47-.07.69-.05.22-.12.42-.21.61-.09.19-.21.36-.34.52-.13.16-.29.3-.46.42l1.36,1.48ZM48.06,90.36c0,.29.04.56.12.79.08.23.19.43.34.59.15.16.32.29.53.37.21.09.44.13.71.13s.5-.04.71-.13c.21-.09.39-.21.53-.37.15-.16.26-.36.34-.59.08-.23.12-.5.12-.79s-.04-.56-.12-.79-.19-.43-.34-.59c-.15-.16-.32-.29-.53-.37-.21-.09-.44-.13-.71-.13s-.5.04-.71.13c-.21.09-.39.21-.53.37-.15.16-.26.36-.34.59s-.12.5-.12.79Z"/><path class="cls-1" d="M57.42,92.23c.19,0,.36-.03.52-.1.15-.06.28-.15.38-.27s.18-.26.24-.42.08-.35.08-.56v-3.21h1v3.21c0,.32-.05.61-.15.88-.1.27-.25.5-.44.7s-.42.35-.7.46c-.27.11-.58.17-.92.17s-.66-.06-.93-.17c-.27-.11-.51-.26-.7-.46-.19-.2-.34-.43-.44-.7-.1-.27-.15-.56-.15-.88v-3.21h1v3.2c0,.2.03.39.08.55.06.17.14.31.24.42.11.12.23.21.39.27.15.06.32.1.52.1Z"/><path class="cls-1" d="M63.69,93.03h-1v-5.35h1v5.35Z"/><path class="cls-1" d="M68.55,87.68c.36,0,.67.04.93.12.26.08.48.2.65.35.17.15.3.33.38.54.08.21.12.44.12.69s-.04.5-.13.71c-.09.22-.22.4-.39.56-.17.16-.39.28-.65.36-.26.09-.56.13-.91.13h-.74v1.88h-1v-5.35h1.74ZM68.55,90.37c.18,0,.34-.02.48-.07.14-.04.25-.11.34-.2.09-.08.16-.19.2-.31.04-.12.07-.26.07-.41,0-.14-.02-.27-.07-.39-.04-.12-.11-.21-.2-.3-.09-.08-.2-.14-.34-.19-.14-.04-.3-.06-.48-.06h-.74v1.92h.74Z"/><path class="cls-1" d="M77.53,93.03h-.77c-.09,0-.16-.02-.21-.06-.05-.04-.09-.1-.12-.16l-.4-1.09h-2.22l-.4,1.09c-.02.06-.06.11-.12.16-.06.05-.13.07-.21.07h-.78l2.11-5.35h1.01l2.1,5.35ZM75.77,91.01l-.65-1.78c-.03-.08-.07-.17-.1-.28-.04-.11-.07-.23-.1-.35-.03.13-.07.24-.1.35-.03.11-.07.21-.1.29l-.65,1.77h1.7Z"/><path class="cls-1" d="M85.81,87.68v5.35h-.88v-3.46c0-.14,0-.29.02-.45l-1.62,3.04c-.08.15-.19.22-.35.22h-.14c-.16,0-.28-.07-.35-.22l-1.64-3.05c0,.08.01.16.02.24s0,.15,0,.22v3.46h-.88v-5.35h.75s.08,0,.11,0c.03,0,.06,0,.09.02.03,0,.05.03.07.05.02.02.04.05.06.09l1.6,2.97c.04.08.08.16.12.24.04.08.07.17.11.26.03-.09.07-.18.11-.26s.08-.17.12-.25l1.58-2.96s.04-.07.06-.09c.02-.02.05-.04.07-.05.03,0,.05-.02.09-.02.03,0,.07,0,.12,0h.75Z"/><path class="cls-1" d="M89.93,93.03h-1v-5.35h1v5.35Z"/><path class="cls-1" d="M94.05,88.47v1.48h1.87v.77h-1.87v1.51h2.38v.8h-3.38v-5.35h3.38v.79h-2.38Z"/><path class="cls-1" d="M103.74,87.68v5.35h-.51c-.08,0-.14-.01-.2-.04-.05-.03-.1-.07-.15-.13l-2.79-3.57c.01.16.02.31.02.45v3.29h-.88v-5.35h.52s.08,0,.11,0c.03,0,.06.01.08.02s.05.03.07.05c.02.02.05.05.07.08l2.81,3.58c0-.09-.01-.17-.02-.26,0-.08,0-.16,0-.23v-3.25h.88Z"/><path class="cls-1" d="M110.6,88.5h-1.61v4.54h-1v-4.54h-1.61v-.82h4.22v.82Z"/><path class="cls-1" d="M118.16,90.36c0,.39-.07.76-.19,1.09-.13.33-.31.62-.55.87-.24.24-.52.43-.86.57-.33.14-.7.21-1.11.21s-.77-.07-1.11-.21c-.33-.14-.62-.33-.86-.57-.24-.25-.42-.53-.55-.87-.13-.33-.2-.7-.2-1.09s.07-.76.2-1.09.32-.62.55-.87.52-.43.86-.57c.33-.14.7-.21,1.11-.21.27,0,.53.03.77.09.24.06.46.15.66.27.2.11.38.25.54.42s.29.35.41.55.2.42.25.66c.06.24.09.49.09.75ZM117.14,90.36c0-.29-.04-.56-.12-.79s-.19-.43-.34-.59c-.15-.16-.32-.29-.53-.37-.21-.09-.44-.13-.71-.13s-.5.04-.71.13c-.21.09-.39.21-.53.37-.15.16-.26.36-.34.59s-.12.5-.12.79.04.56.12.79c.08.23.19.43.34.59.15.16.32.29.53.37.21.09.44.13.71.13s.5-.04.71-.13c.21-.09.39-.21.53-.37.15-.16.26-.36.34-.59.08-.23.12-.5.12-.79Z"/><path class="cls-1" d="M126.42,87.68c.36,0,.67.04.93.12.26.08.48.2.65.35.17.15.3.33.38.54.08.21.12.44.12.69s-.04.5-.13.71c-.09.22-.22.4-.39.56-.17.16-.39.28-.65.36-.26.09-.56.13-.91.13h-.74v1.88h-1v-5.35h1.74ZM126.42,90.37c.18,0,.34-.02.48-.07.14-.04.25-.11.34-.2.09-.08.16-.19.2-.31.04-.12.07-.26.07-.41,0-.14-.02-.27-.07-.39-.04-.12-.11-.21-.2-.3-.09-.08-.2-.14-.34-.19-.14-.04-.3-.06-.48-.06h-.74v1.92h.74Z"/><path class="cls-1" d="M135.37,93.03h-.9c-.17,0-.29-.07-.37-.2l-1.13-1.71c-.04-.06-.09-.11-.14-.14s-.12-.04-.22-.04h-.43v2.09h-1v-5.35h1.63c.36,0,.67.04.93.11.26.08.47.18.64.32s.29.3.37.49c.08.19.12.4.12.62,0,.18-.03.35-.08.51-.05.16-.13.31-.23.44s-.22.25-.37.34c-.15.1-.31.18-.5.23.06.04.12.08.18.13.05.05.1.11.15.18l1.34,1.98ZM132.81,90.23c.19,0,.35-.02.49-.07s.25-.11.34-.19c.09-.08.16-.18.2-.29.04-.11.07-.24.07-.37,0-.27-.09-.48-.27-.62-.18-.15-.45-.22-.82-.22h-.64v1.78h.62Z"/><path class="cls-1" d="M138.87,88.47v1.48h1.87v.77h-1.87v1.51h2.38v.8h-3.38v-5.35h3.38v.79h-2.38Z"/><path class="cls-1" d="M149.86,87.68v5.35h-.88v-3.46c0-.14,0-.29.02-.45l-1.62,3.04c-.08.15-.19.22-.35.22h-.14c-.16,0-.28-.07-.35-.22l-1.64-3.05c0,.08.01.16.02.24s0,.15,0,.22v3.46h-.88v-5.35h.75s.08,0,.11,0c.03,0,.06,0,.09.02.03,0,.05.03.07.05.02.02.04.05.06.09l1.6,2.97c.04.08.08.16.12.24.04.08.07.17.11.26.03-.09.07-.18.11-.26s.08-.17.12-.25l1.58-2.96s.04-.07.06-.09c.02-.02.05-.04.07-.05.03,0,.05-.02.09-.02.03,0,.07,0,.12,0h.75Z"/><path class="cls-1" d="M153.98,93.03h-1v-5.35h1v5.35Z"/><path class="cls-1" d="M159.25,92.23c.19,0,.36-.03.52-.1.15-.06.28-.15.38-.27s.18-.26.24-.42.08-.35.08-.56v-3.21h1v3.21c0,.32-.05.61-.15.88-.1.27-.25.5-.44.7s-.42.35-.7.46c-.27.11-.58.17-.92.17s-.66-.06-.93-.17c-.27-.11-.51-.26-.7-.46-.19-.2-.34-.43-.44-.7-.1-.27-.15-.56-.15-.88v-3.21h1v3.2c0,.2.03.39.08.55.06.17.14.31.24.42.11.12.23.21.39.27.15.06.32.1.52.1Z"/><path class="cls-1" d="M170.33,87.68v5.35h-.88v-3.46c0-.14,0-.29.02-.45l-1.62,3.04c-.08.15-.19.22-.35.22h-.14c-.16,0-.28-.07-.35-.22l-1.64-3.05c0,.08.01.16.02.24s0,.15,0,.22v3.46h-.88v-5.35h.75s.08,0,.11,0c.03,0,.06,0,.09.02.03,0,.05.03.07.05.02.02.04.05.06.09l1.6,2.97c.04.08.08.16.12.24.04.08.07.17.11.26.03-.09.07-.18.11-.26s.08-.17.12-.25l1.58-2.96s.04-.07.06-.09c.02-.02.05-.04.07-.05.03,0,.05-.02.09-.02.03,0,.07,0,.12,0h.75Z"/><path class="cls-1" d="M181.5,93.03h-.77c-.09,0-.16-.02-.21-.06-.05-.04-.09-.1-.12-.16l-.4-1.09h-2.22l-.4,1.09c-.02.06-.06.11-.12.16-.06.05-.13.07-.21.07h-.78l2.11-5.35h1.01l2.1,5.35ZM179.75,91.01l-.65-1.78c-.03-.08-.07-.17-.1-.28-.04-.11-.07-.23-.1-.35-.03.13-.07.24-.1.35-.03.11-.07.21-.1.29l-.65,1.77h1.7Z"/><path class="cls-1" d="M186.01,92.23c.19,0,.36-.03.52-.1.15-.06.28-.15.38-.27s.18-.26.24-.42.08-.35.08-.56v-3.21h1v3.21c0,.32-.05.61-.15.88-.1.27-.25.5-.44.7s-.42.35-.7.46c-.27.11-.58.17-.92.17s-.66-.06-.93-.17c-.27-.11-.51-.26-.7-.46-.19-.2-.34-.43-.44-.7-.1-.27-.15-.56-.15-.88v-3.21h1v3.2c0,.2.03.39.08.55.06.17.14.31.24.42.11.12.23.21.39.27.15.06.32.1.52.1Z"/><path class="cls-1" d="M195.01,88.5h-1.61v4.54h-1v-4.54h-1.61v-.82h4.22v.82Z"/><path class="cls-1" d="M202.57,90.36c0,.39-.07.76-.19,1.09-.13.33-.31.62-.55.87-.24.24-.52.43-.86.57-.33.14-.7.21-1.11.21s-.77-.07-1.11-.21c-.33-.14-.62-.33-.86-.57-.24-.25-.42-.53-.55-.87-.13-.33-.2-.7-.2-1.09s.07-.76.2-1.09.32-.62.55-.87.52-.43.86-.57c.33-.14.7-.21,1.11-.21.27,0,.53.03.77.09.24.06.46.15.66.27.2.11.38.25.54.42s.29.35.41.55.2.42.25.66c.06.24.09.49.09.75ZM201.55,90.36c0-.29-.04-.56-.12-.79s-.19-.43-.34-.59c-.15-.16-.32-.29-.53-.37-.21-.09-.44-.13-.71-.13s-.5.04-.71.13c-.21.09-.39.21-.53.37-.15.16-.26.36-.34.59s-.12.5-.12.79.04.56.12.79c.08.23.19.43.34.59.15.16.32.29.53.37.21.09.44.13.71.13s.5-.04.71-.13c.21-.09.39-.21.53-.37.15-.16.26-.36.34-.59.08-.23.12-.5.12-.79Z"/><path class="cls-1" d="M211.17,87.68v5.35h-.88v-3.46c0-.14,0-.29.02-.45l-1.62,3.04c-.08.15-.19.22-.35.22h-.14c-.16,0-.28-.07-.35-.22l-1.64-3.05c0,.08.01.16.02.24s0,.15,0,.22v3.46h-.88v-5.35h.75s.08,0,.11,0c.03,0,.06,0,.09.02.03,0,.05.03.07.05.02.02.04.05.06.09l1.6,2.97c.04.08.08.16.12.24.04.08.07.17.11.26.03-.09.07-.18.11-.26s.08-.17.12-.25l1.58-2.96s.04-.07.06-.09c.02-.02.05-.04.07-.05.03,0,.05-.02.09-.02.03,0,.07,0,.12,0h.75Z"/><path class="cls-1" d="M219.4,90.36c0,.39-.07.76-.19,1.09-.13.33-.31.62-.55.87-.24.24-.52.43-.86.57-.33.14-.7.21-1.11.21s-.77-.07-1.11-.21c-.33-.14-.62-.33-.86-.57-.24-.25-.42-.53-.55-.87-.13-.33-.2-.7-.2-1.09s.07-.76.2-1.09.32-.62.55-.87.52-.43.86-.57c.33-.14.7-.21,1.11-.21.27,0,.53.03.77.09.24.06.46.15.66.27.2.11.38.25.54.42s.29.35.41.55.2.42.25.66c.06.24.09.49.09.75ZM218.38,90.36c0-.29-.04-.56-.12-.79s-.19-.43-.34-.59c-.15-.16-.32-.29-.53-.37-.21-.09-.44-.13-.71-.13s-.5.04-.71.13c-.21.09-.39.21-.53.37-.15.16-.26.36-.34.59s-.12.5-.12.79.04.56.12.79c.08.23.19.43.34.59.15.16.32.29.53.37.21.09.44.13.71.13s.5-.04.71-.13c.21-.09.39-.21.53-.37.15-.16.26-.36.34-.59.08-.23.12-.5.12-.79Z"/><path class="cls-1" d="M225.76,88.5h-1.61v4.54h-1v-4.54h-1.61v-.82h4.22v.82Z"/><path class="cls-1" d="M233.31,90.36c0,.39-.07.76-.19,1.09-.13.33-.31.62-.55.87-.24.24-.52.43-.86.57-.33.14-.7.21-1.11.21s-.77-.07-1.11-.21c-.33-.14-.62-.33-.86-.57-.24-.25-.42-.53-.55-.87-.13-.33-.2-.7-.2-1.09s.07-.76.2-1.09.32-.62.55-.87.52-.43.86-.57c.33-.14.7-.21,1.11-.21.27,0,.53.03.77.09.24.06.46.15.66.27.2.11.38.25.54.42s.29.35.41.55.2.42.25.66c.06.24.09.49.09.75ZM232.29,90.36c0-.29-.04-.56-.12-.79s-.19-.43-.34-.59c-.15-.16-.32-.29-.53-.37-.21-.09-.44-.13-.71-.13s-.5.04-.71.13c-.21.09-.39.21-.53.37-.15.16-.26.36-.34.59s-.12.5-.12.79.04.56.12.79c.08.23.19.43.34.59.15.16.32.29.53.37.21.09.44.13.71.13s.5-.04.71-.13c.21-.09.39-.21.53-.37.15-.16.26-.36.34-.59.08-.23.12-.5.12-.79Z"/><path class="cls-1" d="M240.29,93.03h-.9c-.17,0-.29-.07-.37-.2l-1.13-1.71c-.04-.06-.09-.11-.14-.14s-.12-.04-.22-.04h-.43v2.09h-1v-5.35h1.63c.36,0,.67.04.93.11.26.08.47.18.64.32s.29.3.37.49c.08.19.12.4.12.62,0,.18-.03.35-.08.51-.05.16-.13.31-.23.44s-.22.25-.37.34c-.15.1-.31.18-.5.23.06.04.12.08.18.13.05.05.1.11.15.18l1.34,1.98ZM237.73,90.23c.19,0,.35-.02.49-.07s.25-.11.34-.19c.09-.08.16-.18.2-.29.04-.11.07-.24.07-.37,0-.27-.09-.48-.27-.62-.18-.15-.45-.22-.82-.22h-.64v1.78h.62Z"/></svg>