<?xml version="1.0" encoding="UTF-8"?><svg id="Capa_1" xmlns="http://www.w3.org/2000/svg" xmlns:xlink="http://www.w3.org/1999/xlink" viewBox="0 0 311.81 85.04"><defs><style>.cls-1{fill:none;}.cls-2{clip-path:url(#clippath);}</style><clipPath id="clippath"><rect class="cls-1" width="311.81" height="85.04"/></clipPath></defs><g class="cls-2"><path d="M66.71,37.09v-.03c.07-.15,1.52-3.73-.06-6.83-.94-1.84-2.72-3.09-5.28-3.7-.15-.04-4.2-.99-9.74,4.91l-7.03,8.05,2.83-10.93v-.02c1.58-7.22-.93-10.26-1.45-10.75h0c-2.76-2.99-5.99-2.63-7.98-1.41-2.03,1.17-3.26,2.96-3.32,3.02h0l-.06.08-.32.33c-.29.31-.7.69-1.18,1.06-1,.75-2.24,1.31-3.4,1.1h-.04l-.12.91-.06.35.18-1.26c-.09,0-2.15-.34-4.4.48-2.24.75-4.6,3-4.46,7.3-.04.3.24,4.46,7.18,8.22l.45-.83-.07.13-.39.7v.03h.02l9.92,5-11.91,1.45c-8.03,1.32-9.49,5.22-9.55,5.38-.93,2.01-1.01,3.92-.2,5.59,1.53,3.16,5.69,4.19,5.87,4.23-.02,0,3.69,1.17,4.21,3.69v.03c.04.16.97,3.9,4.06,5.49,1.84.94,4.01.91,6.44-.09.15-.06,3.99-1.66,5.03-9.68l1.06-11.38c2.34,4.68,7.42,13.2,16.18,20.33l.83.68,1.36-1.67-.83-.68c-8.57-6.98-13.56-15.53-15.76-19.95l11.2,6.17c7.28,3.63,10.74,1.33,10.89,1.22,1.93-1.08,3.11-2.57,3.44-4.41.61-3.46-2.16-6.72-2.28-6.86.01.01-2.31-3.11-1.25-5.45M39.98,58.88c-.88,6.74-3.83,8.11-3.86,8.12-1.88.78-3.51.83-4.82.16-2.3-1.17-3.06-4.19-3.07-4.23v.03c-.74-3.64-5.39-5.1-5.58-5.16-.09-.02-3.52-.88-4.65-3.22-.24-.49-.35-1.02-.35-1.59,0-.74.2-1.56.61-2.44.04-.1,1.3-3.09,8.05-4.2l14.54-1.78s.09,0,.19-.02l.26.14c-.22,2.38-1.32,14.18-1.32,14.18M41.88,42.3h0l-.08.27-.39.04-12.5-6.32h0c-3.2-1.77-4.7-3.48-5.44-4.71-.38-.62-.55-1.1-.63-1.42l-.06-.34-.02-.08c0-3.65,1.54-4.79,3.22-5.47.85-.31,1.72-.41,2.41-.43.33,0,.6.02.79.02l.23.02h.02c4,.56,6.74-3.28,6.84-3.31l.02-.02v-.02l-.6-.41-.09-.07.69.48.04-.04.14-.19c.13-.17.31-.39.56-.65.48-.49,1.16-1.12,1.95-1.57,1.65-.85,3.31-1.24,5.64,1.06l.02.02.04.04.02.04.23.27c.19.27.46.72.67,1.41.45,1.37.76,3.65-.02,7.24h0l-3.67,14.15ZM68.36,49.08c-.22,1.23-1.08,2.28-2.56,3.11-.09.06-2.86,1.74-8.98-1.3l-12.83-7.07s-.24-.14-.41-.24c1.31-1.5,9.47-10.84,9.47-10.84,4.66-4.96,7.85-4.34,7.88-4.33,1.99.47,3.34,1.38,4.01,2.7,1.18,2.3.02,5.2.01,5.23v-.03c-1.51,3.39,1.4,7.28,1.52,7.45.06.07,2.34,2.77,1.88,5.33"/><polygon points="81.02 31.43 86.05 31.43 86.05 49.53 94.94 49.53 94.94 53.77 81.02 53.77 81.02 31.43"/><path d="M112.51,49.87c0,1.52.06,3.01.27,3.91h-4.54l-.3-1.62h-.1c-1.06,1.29-2.72,1.99-4.64,1.99-3.28,0-5.24-2.39-5.24-4.97,0-4.21,3.78-6.2,9.51-6.2v-.2c0-.87-.47-2.09-2.95-2.09-1.66,0-3.41.57-4.48,1.2l-.93-3.22c1.13-.63,3.35-1.46,6.3-1.46,5.4,0,7.09,3.18,7.09,7v5.67ZM107.63,46.12c-2.65,0-4.71.63-4.71,2.55,0,1.29.86,1.92,1.99,1.92,1.23,0,2.29-.83,2.62-1.85.07-.27.1-.57.1-.87v-1.76Z"/><path d="M136.71,45.22c-.1-2.68-.2-5.9-.2-9.18h-.07c-.73,2.85-1.66,6.04-2.52,8.65l-2.72,8.72h-3.94l-2.39-8.62c-.73-2.65-1.46-5.8-2.02-8.75h-.07c-.1,3.02-.23,6.47-.36,9.25l-.43,8.49h-4.67l1.42-22.34h6.73l2.18,7.49c.73,2.55,1.4,5.34,1.89,7.96h.13c.6-2.58,1.36-5.5,2.12-8.03l2.36-7.42h6.63l1.19,22.34h-4.9l-.37-8.55Z"/><path d="M150.8,47.24c.17,2.12,2.22,3.12,4.57,3.12,1.72,0,3.12-.23,4.48-.7l.66,3.42c-1.66.69-3.68,1.03-5.87,1.03-5.5,0-8.65-3.18-8.65-8.29,0-4.11,2.59-8.65,8.19-8.65,5.24,0,7.23,4.08,7.23,8.09,0,.86-.1,1.63-.17,2.02l-10.44-.03ZM156.73,43.8c0-1.19-.53-3.28-2.82-3.28-2.16,0-3.02,1.96-3.15,3.28h5.97Z"/><path d="M165.58,42.9c0-2.39-.03-3.94-.13-5.33h4.31l.2,3.02h.13c.83-2.39,2.78-3.38,4.38-3.38.46,0,.69.03,1.06.1v4.74c-.43-.06-.83-.13-1.39-.13-1.86,0-3.12.97-3.45,2.56-.07.33-.1.7-.1,1.13v8.19h-5.04l.03-10.87Z"/><path d="M191.2,53.38c-.9.43-2.59.76-4.51.76-5.24,0-8.58-3.22-8.58-8.32,0-4.74,3.25-8.62,9.28-8.62,1.33,0,2.79.23,3.85.63l-.79,3.75c-.6-.27-1.49-.5-2.82-.5-2.65,0-4.38,1.89-4.34,4.54,0,2.99,1.99,4.58,4.44,4.58,1.19,0,2.12-.2,2.88-.53l.6,3.71Z"/><path d="M198.63,47.24c.17,2.12,2.23,3.12,4.58,3.12,1.72,0,3.12-.23,4.47-.7l.66,3.42c-1.66.69-3.68,1.03-5.87,1.03-5.5,0-8.65-3.18-8.65-8.29,0-4.11,2.59-8.65,8.19-8.65,5.24,0,7.23,4.08,7.23,8.09,0,.86-.1,1.63-.17,2.02l-10.44-.03ZM204.56,43.8c0-1.19-.53-3.28-2.82-3.28-2.15,0-3.01,1.96-3.15,3.28h5.97Z"/><path d="M229.09,30.24v18.7c0,1.85.07,3.74.13,4.84h-4.48l-.2-2.35h-.1c-.99,1.79-2.99,2.72-5.07,2.72-3.85,0-6.93-3.28-6.93-8.32-.03-5.43,3.38-8.62,7.26-8.62,2.02,0,3.55.74,4.28,1.83h.07v-8.78h5.04ZM224.06,44.46c0-.3,0-.63-.07-.93-.3-1.36-1.39-2.45-2.95-2.45-2.32,0-3.48,2.06-3.48,4.61,0,2.72,1.36,4.44,3.45,4.44,1.46,0,2.65-1,2.95-2.42.07-.33.1-.73.1-1.13v-2.12Z"/><path d="M234.76,31.73c1.4-.27,3.22-.46,5.54-.46,2.85,0,4.94.66,6.27,1.85,1.23,1.07,1.99,2.69,1.99,4.67s-.59,3.61-1.75,4.78c-1.53,1.62-4.01,2.45-6.83,2.45-.86,0-1.65-.03-2.32-.2v8.95h-2.88v-22.04ZM237.65,42.47c.63.17,1.46.23,2.39.23,3.51,0,5.6-1.72,5.6-4.74s-2.09-4.41-5.27-4.41c-1.26,0-2.22.13-2.72.23v8.69Z"/><path d="M254.65,34.78c-1.1,0-1.82-.85-1.82-1.89s.76-1.86,1.89-1.86,1.85.83,1.85,1.86-.73,1.89-1.89,1.89h-.03ZM253.26,37.73h2.92v16.04h-2.92v-16.04Z"/><rect x="262.14" y="30.24" width="2.92" height="23.53"/><path d="M282.33,49.93c0,1.4.07,2.75.23,3.85h-2.61l-.27-2.02h-.1c-.86,1.26-2.62,2.39-4.91,2.39-3.25,0-4.91-2.29-4.91-4.61,0-3.87,3.45-6,9.65-5.96v-.33c0-1.33-.37-3.75-3.65-3.72-1.52,0-3.08.43-4.21,1.19l-.66-1.95c1.33-.83,3.28-1.39,5.3-1.39,4.94,0,6.13,3.35,6.13,6.56v6ZM279.48,45.59c-3.18-.07-6.79.49-6.79,3.61,0,1.92,1.26,2.79,2.72,2.79,2.12,0,3.48-1.33,3.94-2.69.1-.3.13-.63.13-.92v-2.79Z"/><path d="M288.17,42.74c0-1.89-.03-3.52-.13-5.01h2.55l.13,3.15h.1c.73-2.16,2.52-3.51,4.48-3.51.3,0,.53.03.79.1v2.72c-.33-.03-.63-.06-1.03-.06-2.06,0-3.51,1.56-3.91,3.71-.07.43-.1.9-.1,1.39v8.55h-2.92l.03-11.04Z"/></g></svg>