<?xml version="1.0" encoding="UTF-8"?><svg id="Capa_1" xmlns="http://www.w3.org/2000/svg" viewBox="0 0 1856 784"><polygon points="405.51 176.57 482.31 176.57 297.43 378.69 527.69 602.48 443.77 602.48 226.69 392.11 226.69 602.48 165.66 602.48 165.66 176.57 226.69 176.57 226.69 371.38 405.51 176.57"/><rect x="568.87" y="176.57" width="55.59" height="425.9"/><path d="M880.86,433.89v119.19c0,9.56,3.23,14.31,9.7,14.31s17.13-4.89,31.29-14.66v33.81c-12.5,7.87-22.55,13.21-30.14,16.12-7.53,2.78-15.43,4.22-23.75,4.22-23.61,0-37.51-9.1-41.71-27.35-23.73,18.25-48.99,27.35-75.76,27.35-19.63,0-35.96-6.44-49.02-19.34-13.11-12.87-19.63-29.07-19.63-48.57,0-17.67,6.32-33.46,19.08-47.38,12.68-13.88,30.75-24.93,54.17-33.04l71.16-24.34v-15.04c0-33.88-16.87-50.85-50.63-50.85-30.32,0-59.75,15.64-88.41,46.88v-60.55c21.53-25.37,52.51-38.05,93.04-38.05,30.27,0,54.59,7.94,72.84,23.78,6.15,5.06,11.64,11.86,16.49,20.27,4.86,8.43,7.96,16.85,9.3,25.26,1.33,8.47,1.96,24.44,1.96,48M826.26,547.18v-83.23l-37.33,14.35c-18.95,7.49-32.36,15.08-40.17,22.72-7.88,7.6-11.82,17.12-11.82,28.5s3.71,21.04,11.19,28.36c7.4,7.29,17.08,10.95,28.88,10.95,17.73,0,34.15-7.21,49.25-21.65"/><path d="M957.1,582.4v-59.91c15.73,11.02,31.78,19.97,48.22,26.83,16.42,6.87,30.23,10.28,41.44,10.28s21.64-2.85,30.02-8.6c8.34-5.64,12.54-12.47,12.54-20.42s-2.71-14.85-8.09-20.27c-5.46-5.38-17.09-13.14-35.03-23.33-35.87-19.9-59.33-36.91-70.47-51.04-11.11-14.11-16.7-29.48-16.7-46.16,0-21.56,8.43-39.1,25.23-52.72,16.77-13.66,38.42-20.46,64.9-20.46s55.65,7.79,84.59,23.22v54.87c-33.03-19.84-60.04-29.79-81.04-29.79-10.84,0-19.53,2.31-26.17,6.87-6.64,4.58-9.92,10.6-9.92,18.12,0,6.51,3.08,12.69,9.09,18.57,6.08,5.87,16.69,12.96,31.78,21.28l19.9,11.32c46.65,26.38,69.98,55.62,69.98,87.75,0,22.93-8.98,41.77-27.03,56.52-18.02,14.72-41.16,22.11-69.44,22.11-16.72,0-31.55-1.81-44.63-5.36-13.02-3.6-29.4-10.12-49.15-19.67"/><path d="M1197.41,582.4v-59.91c15.69,11.02,31.76,19.97,48.14,26.83,16.44,6.87,30.27,10.28,41.53,10.28s21.58-2.85,29.95-8.6c8.38-5.64,12.56-12.47,12.56-20.42s-2.71-14.85-8.08-20.27c-5.38-5.38-17.09-13.14-35.05-23.33-35.87-19.9-59.35-36.91-70.48-51.04-11.1-14.11-16.65-29.48-16.65-46.16,0-21.56,8.41-39.1,25.23-52.72,16.76-13.66,38.37-20.46,64.84-20.46s55.69,7.79,84.59,23.22v54.87c-33.03-19.84-60.05-29.79-81.03-29.79-10.82,0-19.5,2.31-26.15,6.87-6.62,4.58-9.9,10.6-9.9,18.12,0,6.51,3.03,12.69,9.12,18.57,6.05,5.87,16.64,12.96,31.74,21.28l19.88,11.32c46.66,26.38,70,55.62,70,87.75,0,22.93-9,41.77-26.99,56.52-18.05,14.72-41.23,22.11-69.51,22.11-16.73,0-31.57-1.81-44.59-5.36-13.04-3.6-29.41-10.12-49.14-19.67"/><path d="M1690.34,467.39h-196.58c1.38,26.81,10.34,48.13,26.86,64.04,16.52,15.83,37.86,23.71,63.99,23.71,36.43,0,70.09-11.36,100.93-34.12v54.2c-17.08,11.38-33.97,19.47-50.72,24.34-16.69,4.9-36.38,7.33-58.85,7.33-30.82,0-55.8-6.39-74.84-19.2-19.06-12.82-34.34-30.04-45.79-51.69-11.47-21.65-17.17-46.7-17.17-75.17,0-42.65,12.03-77.34,36.16-104.09,24.17-26.73,55.52-40.13,94.06-40.13s66.72,13.04,88.84,39.1c22.1,26.02,33.14,60.88,33.14,104.64v7.06ZM1495.21,434.21h140.02c-1.4-22.21-7.95-39.29-19.67-51.3-11.67-12.01-27.41-18.02-47.15-18.02s-35.96,6.01-48.53,18.02c-12.6,12.01-20.83,29.09-24.66,51.3"/></svg>