<?xml version="1.0" encoding="UTF-8"?><svg id="Capa_1" xmlns="http://www.w3.org/2000/svg" xmlns:xlink="http://www.w3.org/1999/xlink" viewBox="0 0 311.81 85.04"><defs><style>.cls-1{fill:none;}.cls-2{clip-path:url(#clippath);}</style><clipPath id="clippath"><rect class="cls-1" width="311.81" height="85.04"/></clipPath></defs><g class="cls-2"><path d="M20.07,23.42c5.04,0,7.58.4,9.85,1.6,4.24,2.27,6.91,7.36,6.91,13.24s-2.5,10.88-6.64,13.15c-2.5,1.43-4.55,1.74-10.75,1.74h-5.39v-29.74h6.02ZM21.05,49.18c3.88,0,5.4-.31,7.09-1.43,2.5-1.65,3.92-5.13,3.92-9.5s-1.51-7.89-4.23-9.54c-1.78-1.12-3.03-1.34-7.89-1.34h-1.29v21.8h2.41Z"/><path d="M44.23,25.73c0,1.6-1.11,2.72-2.76,2.72s-2.76-1.12-2.76-2.67c0-1.7,1.16-2.85,2.85-2.85,1.56,0,2.67,1.16,2.67,2.81M43.7,53.15h-4.46v-21.18h4.46v21.18Z"/><path d="M50.34,43.52c.18,4.28,2.14,6.6,5.62,6.6,2.14,0,3.52-.85,4.46-2.76l3.92.27c-1.16,3.92-4.19,6.11-8.52,6.11-5.97,0-9.9-4.32-9.9-10.92s3.88-11.41,9.76-11.41c5.57,0,9.14,4.33,9.14,11.19,0,.13,0,.53-.05.94h-14.44ZM60.33,40.27c-.4-3.57-2.01-5.35-4.77-5.35s-4.37,1.74-5.08,5.35h9.85Z"/><path d="M78.12,38.17c-.31-2.27-1.52-3.34-3.83-3.34-2.05,0-3.48,1.11-3.48,2.67s.71,2.01,5.04,3.25c3.21.94,4.59,1.61,5.48,2.59.8.98,1.25,2.23,1.25,3.7,0,4.15-3.08,6.69-8.16,6.69-5.66,0-8.74-2.59-8.74-7.4h4.15c.22,2.72,1.65,3.97,4.46,3.97,2.41,0,3.88-1.16,3.88-2.94,0-.94-.4-1.52-1.38-2.05-.71-.36-1.25-.54-4.59-1.56-2.32-.67-3.52-1.29-4.37-2.14-.89-.94-1.38-2.27-1.38-3.7,0-3.88,3.21-6.51,7.93-6.51s7.71,2.45,7.98,6.78h-4.24Z"/><path d="M87.97,43.52c.18,4.28,2.14,6.6,5.62,6.6,2.14,0,3.52-.85,4.46-2.76l3.92.27c-1.16,3.92-4.19,6.11-8.52,6.11-5.97,0-9.9-4.32-9.9-10.92s3.88-11.41,9.76-11.41c5.57,0,9.14,4.33,9.14,11.19,0,.13,0,.53-.04.94h-14.44ZM97.96,40.27c-.4-3.57-2.01-5.35-4.77-5.35s-4.37,1.74-5.08,5.35h9.85Z"/><rect x="104.65" y="23.24" width="4.46" height="29.92"/><path d="M135.64,31.66c-.27-3.03-2.23-4.77-5.3-4.77-2.76,0-4.86,1.65-4.86,3.83,0,1.07.58,2.01,1.65,2.63.89.58,1.43.8,5.08,2.36,4.28,1.78,5.66,2.54,6.78,3.79,1.25,1.38,1.92,3.21,1.92,5.35,0,5.35-4.01,8.83-10.21,8.83-6.73,0-10.48-3.52-10.79-10.17h4.46c.36,4.06,2.54,6.15,6.42,6.15,3.16,0,5.39-1.69,5.39-4.06,0-1.34-.62-2.36-1.92-3.25-.94-.62-1.47-.89-4.9-2.36-3.12-1.34-4.99-2.36-6.11-3.39-1.56-1.43-2.36-3.3-2.36-5.48,0-4.81,3.97-8.25,9.59-8.25,3.43,0,6.38,1.34,8.02,3.66,1.03,1.43,1.43,2.81,1.56,5.13h-4.41Z"/><path d="M142.91,37.95c.27-2.14.89-3.39,2.14-4.5,1.52-1.25,3.83-1.96,6.51-1.96,3.57,0,6.11,1.2,7,3.3.54,1.2.67,2.32.67,4.99v8.25c0,2.85.13,3.88.67,5.13h-4.06c-.27-.98-.36-1.47-.36-2.63-1.16,2.1-3.17,3.12-6.06,3.12-4.46,0-7.22-2.32-7.22-6.06,0-2.94,1.69-5.13,4.86-6.33,1.96-.76,3.21-1.02,7.94-1.87v-.58c0-2.72-1.03-3.74-3.7-3.74-2.41,0-3.74.94-4.15,2.9h-4.24ZM154.99,42.41c-6.15.94-8.29,2.14-8.29,4.68,0,1.83,1.47,3.08,3.61,3.08,1.78,0,3.3-.8,4.06-2.23.45-.8.62-1.96.62-3.88v-1.65Z"/><path d="M166.45,31.98c.31.85.4,1.56.45,2.9,1.47-2.27,3.61-3.39,6.38-3.39s4.99,1.25,6.02,3.25c.71,1.38.85,2.32.85,6.24v12.17h-4.37v-11.46c0-2.54-.13-3.52-.53-4.41-.58-1.25-1.74-1.92-3.3-1.92-1.69,0-3.16.85-4.01,2.32-.53.94-.76,2.18-.76,4.19v11.28h-4.37v-13.77c0-5.17,0-5.35-.58-7.4h4.24Z"/><polygon points="199.22 23.42 206.53 48.16 213.94 23.42 220.49 23.42 220.49 53.15 216.25 53.15 216.25 28.5 208.9 53.15 204.17 53.15 196.86 28.5 196.86 53.15 192.62 53.15 192.62 23.42 199.22 23.42"/><path d="M229.68,25.73c0,1.6-1.11,2.72-2.76,2.72s-2.76-1.12-2.76-2.67c0-1.7,1.16-2.85,2.85-2.85,1.56,0,2.68,1.16,2.68,2.81M229.14,53.15h-4.46v-21.18h4.46v21.18Z"/><path d="M251.39,35.19h-4.32c.85.85,1.43,2.59,1.43,4.24,0,2.41-1.12,4.37-3.03,5.26-1.47.71-1.96.8-6.2,1.43-1.29.18-2.23.85-2.23,1.52,0,.4.22.67.62.85.44.18.49.18,3.83.54,4.01.4,5.26.67,6.6,1.38,1.74.94,2.76,2.76,2.76,4.95,0,4.28-3.75,6.82-10.08,6.82s-10.07-2.41-10.07-6.15c0-2.5,1.34-4.01,4.37-5.08-1.65-.62-2.32-1.38-2.32-2.5,0-1.43,1.02-2.36,3.74-3.39-2.68-1.25-3.88-3.12-3.88-6.06,0-4.5,3.25-7.4,8.34-7.4,1.25,0,2.23.13,3.7.58l6.73-.18v3.21ZM234.54,55.65c0,1.96,2.45,3.17,6.33,3.17,3.57,0,5.75-1.2,5.75-3.12s-2.27-3.12-6.33-3.12c-3.61,0-5.75,1.16-5.75,3.08M236.54,38.93c0,2.23,1.6,3.7,4.01,3.7s4.1-1.47,4.1-3.74-1.65-3.92-3.97-3.92c-2.5,0-4.15,1.6-4.15,3.97"/><path d="M257.01,31.98v12.48c0,1.87.22,3.16.71,3.83.67.94,1.87,1.47,3.25,1.47,1.69,0,3.08-.76,3.88-2.19.54-.94.76-2.1.76-3.97v-11.64h4.37v14.67q0,4.77.54,6.51h-4.19c-.22-.62-.4-1.61-.45-2.63-1.43,2.18-3.12,3.12-5.8,3.12-2.81,0-5.13-1.2-6.38-3.21-.76-1.25-1.07-2.99-1.07-5.84v-12.62h4.37Z"/><path d="M276.63,43.52c.18,4.28,2.14,6.6,5.62,6.6,2.14,0,3.52-.85,4.46-2.76l3.92.27c-1.16,3.92-4.19,6.11-8.51,6.11-5.97,0-9.9-4.32-9.9-10.92s3.88-11.41,9.76-11.41c5.57,0,9.14,4.33,9.14,11.19,0,.13,0,.53-.04.94h-14.44ZM286.62,40.27c-.4-3.57-2.01-5.35-4.77-5.35s-4.37,1.74-5.08,5.35h9.85Z"/><rect x="293.31" y="23.24" width="4.46" height="29.92"/></g></svg>