<?xml version="1.0" encoding="UTF-8"?>
<svg id="Capa_1" xmlns="http://www.w3.org/2000/svg" version="1.1" viewBox="0 0 489.33 157.92">
  <!-- Generator: Adobe Illustrator 30.1.0, SVG Export Plug-In . SVG Version: 2.1.1 Build 136)  -->
  <path d="M54.67,31.17h34.26c6.78,0,11.84.31,15.17.93,3.33.62,6.31,1.91,8.95,3.88,2.63,1.97,4.82,4.59,6.58,7.86,1.76,3.27,2.63,6.94,2.63,11,0,4.41-1.08,8.45-3.24,12.13-2.16,3.68-5.1,6.44-8.8,8.27,5.22,1.67,9.24,4.51,12.04,8.53,2.81,4.02,4.21,8.75,4.21,14.18,0,4.28-.91,8.43-2.72,12.48-1.81,4.04-4.29,7.27-7.42,9.69-3.14,2.42-7,3.9-11.6,4.46-2.88.34-9.84.56-20.87.64h-29.17V31.17ZM71.97,46.82v21.75h11.34c6.74,0,10.93-.11,12.57-.32,2.96-.39,5.29-1.51,6.99-3.37,1.7-1.86,2.54-4.31,2.54-7.34s-.73-5.27-2.19-7.09c-1.46-1.82-3.64-2.92-6.52-3.3-1.72-.21-6.65-.32-14.79-.32h-9.94ZM71.97,84.22v25.15h16.02c6.23,0,10.19-.19,11.87-.58,2.57-.51,4.67-1.76,6.28-3.75,1.62-1.99,2.43-4.65,2.43-7.99,0-2.82-.62-5.22-1.87-7.18-1.25-1.97-3.05-3.4-5.41-4.3-2.36-.9-7.47-1.35-15.35-1.35h-13.97Z"/>
  <path d="M174.51,103.53l16.37,3.02c-2.1,6.59-5.43,11.6-9.97,15.04s-10.22,5.16-17.04,5.16c-10.8,0-18.79-3.87-23.97-11.61-4.09-6.2-6.14-14.03-6.14-23.48,0-11.29,2.69-20.13,8.07-26.53,5.38-6.39,12.18-9.59,20.4-9.59,9.24,0,16.53,3.35,21.86,10.04,5.34,6.69,7.89,16.95,7.66,30.76h-41.16c.12,5.35,1.44,9.51,3.98,12.48,2.53,2.97,5.69,4.46,9.47,4.46,2.57,0,4.74-.77,6.49-2.31,1.75-1.54,3.08-4.02,3.97-7.44ZM175.45,85.31c-.12-5.22-1.34-9.18-3.68-11.9-2.34-2.72-5.19-4.07-8.54-4.07-3.59,0-6.55,1.43-8.89,4.3-2.34,2.87-3.49,6.76-3.45,11.68h24.55Z"/>
  <path d="M196.96,105.77l16.49-2.76c.7,3.51,2.12,6.17,4.27,7.99s5.15,2.73,9,2.73c4.25,0,7.44-.86,9.59-2.57,1.44-1.2,2.16-2.8,2.16-4.81,0-1.37-.39-2.5-1.17-3.4-.82-.86-2.65-1.65-5.5-2.37-13.25-3.21-21.65-6.14-25.2-8.79-4.91-3.68-7.37-8.79-7.37-15.33,0-5.9,2.12-10.86,6.37-14.88,4.25-4.02,10.84-6.03,19.76-6.03s14.81,1.52,18.94,4.56c4.13,3.04,6.98,7.53,8.54,13.47l-15.49,3.14c-.66-2.65-1.92-4.68-3.77-6.09-1.85-1.41-4.49-2.12-7.92-2.12-4.32,0-7.42.66-9.29,1.99-1.25.94-1.87,2.16-1.87,3.66,0,1.28.54,2.37,1.64,3.27,1.48,1.2,6.6,2.89,15.35,5.07,8.75,2.18,14.86,4.85,18.33,8.02,3.43,3.21,5.15,7.68,5.15,13.41,0,6.24-2.38,11.61-7.13,16.1-4.76,4.49-11.79,6.74-21.1,6.74-8.46,0-15.15-1.88-20.08-5.64-4.93-3.76-8.16-8.87-9.68-15.33Z"/>
  <path d="M297.81,57.08v14.37h-11.22v27.46c0,5.56.11,8.8.32,9.72.21.92.7,1.68,1.46,2.28.76.6,1.69.9,2.78.9,1.52,0,3.72-.58,6.61-1.73l1.4,13.99c-3.82,1.8-8.15,2.69-12.98,2.69-2.96,0-5.63-.54-8.01-1.64-2.38-1.09-4.12-2.5-5.23-4.23-1.11-1.73-1.88-4.07-2.31-7.02-.35-2.1-.53-6.33-.53-12.7v-29.7h-7.54v-14.37h7.54v-13.53l16.49-10.52v24.06h11.22Z"/>
  <path d="M347.56,103.53l16.37,3.02c-2.1,6.59-5.43,11.6-9.97,15.04s-10.22,5.16-17.04,5.16c-10.8,0-18.79-3.87-23.97-11.61-4.09-6.2-6.14-14.03-6.14-23.48,0-11.29,2.69-20.13,8.07-26.53,5.38-6.39,12.18-9.59,20.4-9.59,9.24,0,16.53,3.35,21.86,10.04,5.34,6.69,7.89,16.95,7.66,30.76h-41.16c.12,5.35,1.44,9.51,3.98,12.48,2.53,2.97,5.69,4.46,9.47,4.46,2.57,0,4.74-.77,6.49-2.31,1.75-1.54,3.08-4.02,3.97-7.44ZM348.49,85.31c-.12-5.22-1.34-9.18-3.68-11.9-2.34-2.72-5.19-4.07-8.54-4.07-3.59,0-6.55,1.43-8.89,4.3-2.34,2.87-3.49,6.76-3.45,11.68h24.55Z"/>
  <path d="M434.67,125.21h-16.43v-34.77c0-7.35-.35-12.11-1.05-14.27s-1.84-3.84-3.42-5.04c-1.58-1.2-3.48-1.8-5.7-1.8-2.85,0-5.4.86-7.66,2.57-2.26,1.71-3.81,3.98-4.65,6.8-.84,2.82-1.26,8.04-1.26,15.65v30.86h-16.43V57.08h15.26v10.01c5.42-7.7,12.24-11.55,20.46-11.55,3.62,0,6.94.72,9.94,2.15,3,1.43,5.27,3.26,6.81,5.49,1.54,2.22,2.61,4.75,3.22,7.57.6,2.82.91,6.86.91,12.13v42.34Z"/>
</svg>