<?xml version="1.0" encoding="UTF-8"?><svg id="Capa_1" xmlns="http://www.w3.org/2000/svg" xmlns:xlink="http://www.w3.org/1999/xlink" viewBox="0 0 595.28 157.92"><defs><style>.cls-1{fill:none;}.cls-2{clip-path:url(#clippath);}</style><clipPath id="clippath"><rect class="cls-1" width="595.28" height="157.92"/></clipPath></defs><g class="cls-2"><path d="M101.82,40.4c6.22,6.01,9.67,12.83,10.36,20.47h-11.89c-1.32-5.8-3.96-10.4-7.92-13.79-3.95-3.39-9.5-5.09-16.65-5.09-8.71,0-15.74,3.12-21.1,9.36-5.36,6.24-8.04,15.8-8.04,28.68,0,10.55,2.42,19.11,7.26,25.68,4.84,6.57,12.05,9.85,21.65,9.85,8.83,0,15.56-3.45,20.17-10.36,2.45-3.64,4.28-8.42,5.48-14.35h11.89c-1.05,9.48-4.53,17.43-10.42,23.85-7.07,7.72-16.6,11.59-28.6,11.59-10.34,0-19.03-3.17-26.06-9.51-9.25-8.38-13.88-21.33-13.88-38.83,0-13.29,3.47-24.19,10.42-32.7,7.51-9.24,17.87-13.86,31.08-13.86,11.27,0,20.01,3,26.24,9.01"/><path d="M206.25,46.71c5.97,7.97,8.95,18.17,8.95,30.59,0,13.45-3.41,24.62-10.24,33.53-8.01,10.46-19.43,15.69-34.27,15.69-13.85,0-24.75-4.58-32.68-13.73-7.07-8.83-10.61-19.99-10.61-33.47,0-12.18,3.02-22.6,9.07-31.26,7.76-11.12,19.25-16.67,34.45-16.67s27.67,5.11,35.31,15.32M195.49,104.11c4.8-7.71,7.2-16.58,7.2-26.6,0-10.59-2.77-19.12-8.31-25.58-5.54-6.46-13.11-9.7-22.71-9.7s-16.92,3.2-22.81,9.6c-5.88,6.4-8.83,15.84-8.83,28.31,0,9.98,2.52,18.4,7.57,25.25,5.05,6.85,13.23,10.28,24.55,10.28s18.52-3.85,23.33-11.56"/><polygon points="232.36 33.84 244.56 33.84 244.56 113.17 289.74 113.17 289.74 123.89 232.36 123.89 232.36 33.84"/><path d="M369.34,40.4c6.22,6.01,9.67,12.83,10.36,20.47h-11.89c-1.32-5.8-3.96-10.4-7.92-13.79-3.95-3.39-9.5-5.09-16.65-5.09-8.71,0-15.74,3.12-21.1,9.36-5.36,6.24-8.04,15.8-8.04,28.68,0,10.55,2.42,19.11,7.26,25.68,4.84,6.57,12.05,9.85,21.65,9.85,8.83,0,15.56-3.45,20.17-10.36,2.45-3.64,4.28-8.42,5.48-14.35h11.89c-1.05,9.48-4.52,17.43-10.42,23.85-7.07,7.72-16.6,11.59-28.6,11.59-10.34,0-19.03-3.17-26.06-9.51-9.25-8.38-13.88-21.33-13.88-38.83,0-13.29,3.47-24.19,10.42-32.7,7.51-9.24,17.87-13.86,31.08-13.86,11.27,0,20.02,3,26.24,9.01"/><path d="M425.83,33.84h13.79l32.67,90.05h-13.36l-9.13-26.97h-35.62l-9.75,26.97h-12.51l33.9-90.05ZM445.88,86.99l-13.67-39.79-14.53,39.79h28.2Z"/><path d="M487.69,33.84h40.93c6.74,0,12.3,1,16.67,3,8.31,3.84,12.46,10.93,12.46,21.27,0,5.4-1.11,9.81-3.34,13.24-2.23,3.43-5.34,6.19-9.35,8.28,3.51,1.43,6.16,3.31,7.94,5.64,1.78,2.33,2.77,6.11,2.97,11.34l.43,12.08c.12,3.43.41,5.99.86,7.66.73,2.86,2.04,4.7,3.92,5.52v2.02h-14.96c-.41-.78-.74-1.78-.98-3-.25-1.22-.45-3.6-.61-7.11l-.74-15.02c-.28-5.89-2.4-9.83-6.37-11.83-2.26-1.1-5.82-1.65-10.66-1.65h-26.98v38.62h-12.2V33.84ZM527.32,75.1c5.56,0,9.97-1.14,13.21-3.43,3.24-2.29,4.86-6.42,4.86-12.38,0-6.42-2.27-10.79-6.8-13.12-2.43-1.23-5.66-1.84-9.72-1.84h-28.97v30.77h27.42Z"/></g></svg>